/* XPM */
static const char *SDL_icon_xpm[] = {
/* columns rows colors chars-per-pixel */
"64 64 256 2 ",
"   c #47704C",
".  c gray5",
"X  c #252525",
"o  c gray1",
"O  c #0B0B0B",
"+  c gray1",
"@  c black",
"#  c #08060F",
"$  c #080815",
"%  c #0C0C0C",
"&  c #000001",
"*  c #03031C",
"=  c gray2",
"-  c #07050A",
";  c #000042",
":  c #000001",
">  c #000001",
",  c #010101",
"<  c #D5D5D5",
"1  c #CACACA",
"2  c #010116",
"3  c #B7B7B7",
"4  c #02021E",
"5  c #010104",
"6  c #080809",
"7  c #090915",
"8  c None",
"9  c #0E0E79",
"0  c #07050A",
"q  c gray39",
"w  c gray81",
"e  c black",
"r  c #181837",
"t  c black",
"y  c #070754",
"u  c #080827",
"i  c #00002B",
"p  c #000042",
"a  c #C4C4C3",
"s  c gray87",
"d  c #000028",
"f  c #191938",
"g  c #1D1D41",
"h  c #31316C",
"j  c #262657",
"k  c gray83",
"l  c #362318",
"z  c #38387D",
"x  c gray46",
"c  c #676767",
"v  c gray57",
"b  c DimGray",
"n  c #9B9B9B",
"m  c #1A141D",
"M  c black",
"N  c #575756",
"B  c #00004C",
"V  c gray58",
"C  c gray62",
"Z  c gray3",
"A  c #08080A",
"S  c #797979",
"D  c #8D8D8D",
"F  c #767676",
"G  c #6C6C6C",
"H  c #515151",
"J  c #A3A2A2",
"K  c #E4E4E4",
"L  c #A7A7A7",
"P  c #E4E4E4",
"I  c #767676",
"U  c #B4B4B4",
"Y  c #5B402D",
"T  c #353535",
"R  c gray33",
"E  c gray51",
"W  c #101096",
"Q  c gray27",
"!  c #39302A",
"~  c #D0D0D0",
"^  c gray22",
"/  c gray70",
"(  c gray68",
")  c #9B9B9B",
"_  c #CECECE",
"`  c #B7B7B7",
"'  c gray55",
"]  c #868686",
"[  c #939393",
"{  c #9A9A9A",
"}  c #6B6B69",
"|  c #434343",
" . c #979797",
".. c #7B7B7B",
"X. c #0D0D7F",
"o. c #0D0D79",
"O. c #6A4833",
"+. c #1A1A21",
"@. c #9A9A9A",
"#. c #484848",
"$. c gray33",
"%. c #393939",
"&. c gray72",
"*. c #3A3A3A",
"=. c #C0C0C0",
"-. c #C6C6C6",
";. c #C6C6C6",
":. c #D7D7D7",
">. c #D5D5D5",
",. c gray66",
"<. c gray67",
"1. c #1B1BFF",
"2. c #7373FF",
"3. c #00009B",
"4. c white",
"5. c #00009D",
"6. c #7474FF",
"7. c #191AFF",
"8. c #00009A",
"9. c #FFC89B",
"0. c #7575FF",
"q. c #FFCB9D",
"w. c #1818F8",
"e. c #1515E4",
"r. c #0101A1",
"t. c #00008E",
"y. c #F6F6F6",
"u. c #1717EC",
"i. c #010153",
"p. c #010102",
"a. c #0707B3",
"s. c #000095",
"d. c #1818F2",
"f. c #2020FF",
"g. c #1515DA",
"h. c #00007E",
"j. c #3333FE",
"k. c #1414CD",
"l. c #1010D6",
"z. c #6C6CF0",
"x. c #00006D",
"c. c #0909BC",
"v. c #1919FB",
"b. c #0C0CC9",
"n. c #AEAEFF",
"m. c #000086",
"M. c #2727FF",
"N. c #4E4EB1",
"B. c #BBBBBA",
"V. c #B1B1B0",
"C. c #0404AA",
"Z. c #6060FF",
"A. c #000077",
"S. c #010161",
"D. c #515155",
"F. c #CACACA",
"G. c #5E5ECF",
"H. c #4848FF",
"J. c #1111B3",
"K. c #2D2DFE",
"L. c #090808",
"P. c #FCC397",
"I. c #6161DB",
"U. c #1D1D5A",
"Y. c #1212A5",
"T. c #6868E6",
"R. c #7070F8",
"E. c #0E0E88",
"W. c #444495",
"Q. c #DEAD85",
"!. c gray66",
"~. c #9C7960",
"^. c gray60",
"/. c #7070FF",
"(. c #656366",
"). c #FEFEFE",
"_. c gray99",
"`. c gray91",
"'. c gray94",
"]. c #3D3D84",
"[. c #6D6D6C",
"{. c #866B57",
"}. c #5959FC",
"|. c #F3BC90",
" X c #908E8C",
".X c #36357B",
"XX c #8B8783",
"oX c #7F7E7D",
"OX c #B58D6D",
"+X c #121294",
"@X c #24217B",
"#X c #131318",
"$X c #916144",
"%X c #929292",
"&X c #3F3FFE",
"*X c #78533E",
"=X c #0E0D4F",
"-X c gray86",
";X c gray83",
":X c #5353FE",
">X c #AAAAFF",
",X c #6868FF",
"<X c gray87",
"1X c #4B4BA5",
"2X c #1414BF",
"3X c #2B2B43",
"4X c #EEAA7C",
"5X c #0D0D5E",
"6X c #EDB78C",
"7X c #1B1A42",
"8X c #C19977",
"9X c #282629",
"0X c #C09571",
"qX c #E7A06F",
"wX c #1A1A1E",
"eX c #201C97",
"rX c #7E7EFF",
"tX c #34354F",
"yX c #A7A7FF",
"uX c #5959C3",
"iX c #00001B",
"pX c #B27750",
"aX c #FBC094",
"sX c #5E5E5F",
"dX c #10106E",
"fX c #D2A580",
"gX c #3C3D41",
"hX c #020233",
"jX c #4D4DF4",
"kX c #342569",
"lX c #47376F",
"zX c #8282FF",
"xX c #9898FF",
"cX c #6C6CFD",
"vX c #5D565A",
"bX c #A36E4C",
"nX c #FEC69A",
"mX c #C3885E",
"MX c #E49767",
"NX c #DE9362",
"BX c #A3836A",
"VX c #2525D9",
"CX c #4142EB",
"ZX c #5555CB",
"AX c #2B29B0",
"SX c #9090FF",
"DX c #151562",
"FX c #6767F5",
"GX c #45454D",
"HX c #837569",
"JX c #543952",
"KX c #D19166",
"LX c #9494FF",
"PX c #4949E1",
"IX c #17177B",
"UX c #2222F5",
/* pixels */
"                                                                                                                                ",
"                                                              X . O o % o + + O X                                               ",
"                                                    X o 6 , - $ m f r g g r u * $ - > & e O                                     ",
"                                              . e > $ r h W.N.uXI.T.T.T.T.T.I.G.uX1X].8 g u # , e .                             ",
"                                          o : 7 j W.G.z.2.0.0.0.6.6.6.6.6.6.6.6.0.0.6.2.z.G.1X.Xj 7 , o                         ",
"                                    X e - f ].G.R.0.6.2.2.2.2.2.2.2.2.2.2.2.2.2.2.6.6.6.2.2.2./.FXZX.Xr 5 o                     ",
"                                . = 0 j N.z.6.6.2.2.2.2.2.2.2.2.2.2.2.2.2.2.6.6./.,X:XH.&Xj.j.K.K.M.K.VX9 u M                   ",
"                              t # g N.z.0.6.2.2.2.2.2.2.2.2.2.2.2.2.2.2.6.6.,XH.j.f.1.7.7.7.7.7.7.w.u.e.l.s.4 t                 ",
"    . : $ 6               . : r 1Xz.0.2.2.2.2.2.2.2.2.2.2.2.2.2.2.6.0.R.I.PXM.1.7.7.1.1.1.w.e.l.c.C.r.r.t.B 7 +                 ",
"    M i +Xj , .         % # z T.0.6.2.2.2.2.2.2.2.2.2.2.2.2.2.2.6.T.1X8 8 U.2X1.1.1.w.e.b.a.r.3.8.3.s.x.4 > O                   ",
"    0 S.k.jXz # o     M f N.R.6.2.2.2.2.2.2.2.2.2.2.2.2.2.2.6.R.N.8 ].ZX}.ZXIXv.u.l.a.r.8.8.3.3.5.m.; * @                       ",
"  + 2 m.b.M.}.].* % & j G.6.2.2.2.2.2.2.2.2.2.2.2.2.2.2.2.6.I.].W.I.jXK.f.CXU.c.C.3.8.3.3.3.3.8.x.4 > O                         ",
"  @ i s.b.7.j.FX8 2 h z.6.2.2.2.2.2.2.2.2.2.2.2.2.2.2.6.R.N.W.I.jXAXkXeX7.&XU.m.3.3.3.3.3.3.s.i.* @                             ",
"  & ; 8.b.1.1.&XW..Xz.6.2.2.2.2.2.2.2.2.2.2.2.2.2.2.6.I.W.N.Z.VXkX*XmXlXw.j.U.m.3.3.3.3.5.t.; # +                               ",
"  : ; 8.b.1.1.J..Xz.6.2.2.2.2.2.2.2.2.2.2.2.2.2.2.2.uXW.I.}.AXJXpXqXqXJXu.K.U.h.5.3.3.5.m.i 5 .                                 ",
"  > i.3.c.1.g.@XT.6.2.2.2.2.2.2.2.0.rXzXrX6.2.2.2.G.uXcXCX@X$XNX4XP.|.lXw.M.U.h.5.3.5.h.4 : X                                   ",
"  5 i.5.C.u.9 N.0.2.2.2.2.2.2.2.0.xXyX>XyXSX0.2.R.z.,XCXkXbXNX4XnX9.|.lXw.UX=Xm.3.5.A.2 =                                       ",
"  A i.5.r.E.+XZ.6.2.2.2.2.2.2.6.xXn.n.n.n.>XzX2.6.Z.K.+X$XMXMXaX9.9.6X8 v.d.=Xm.5.A.2 @                                         ",
"  , i.5.t.S.u.Z.6.2.2.2.2.2.2.rX>Xn.n.n.n.>XzX/.:XM.7.g.kX$XqX9.9.9.Q.@X7.u.i.t.A.iX7 = +                                       ",
"  & B 5.S.+X1.H.6.2.2.2.2.2.2.rX>Xn.n.n.n.LXZ.&Xf.7.1.1.d.eX{.P.9.q.8XeX1.e.; m.DX].W.h f 5 @ .                                 ",
"  @ i i.hXJ.7.M.Z.0.6.2.2.2.2.0.SXyXyXxX0.H.f.7.1.1.1.1.1.7.Y.~.9.q.~.J.1.g.i.k.jX0.0.2.T.N.h 7 & O                             ",
"  o r N.N.@Xk.7.M.:X,X/.2.2./.,XZ.}.H.j.f.7.1.1.1.1.1.1.1.1.v.eX8Xq.vXg.1.g.E.1.H.0.2.2.6.0.R.G.z m & .                         ",
"  & z &XM.VXY.1.7.1.M.j.j.j.K.M.f.1.v.g.J.Y.J.k.w.1.1.1.1.1.1.u.lX0X.Xw.1.k.+X7.M.Z.6.6.2.2.2.6.2.I.z $ = X                     ",
"  0 AXf.7.7.g.w.1.1.7.7.7.7.7.7.7.k.dX3XD.(.vX3X5Xk.1.1.1.1.1.1.g.@X2X1.1.k.Y.1.7.M.H.Z./.6.6.2.2.6.2.G.h - o                   ",
". 7 eX5X2X1.1.1.1.1.1.1.1.1.1.u.E.3XXXF.`.y.y.<XXX7Xk.1.1.1.1.1.1.7.1.1.1.2Xk.1.1.7.1.f.j.:XZ./.6.6.2.6.R.1Xf 6 X               ",
". * E.sX8 u.1.1.1.1.1.1.1.1.e.5XsXB.'.).4.4.4.4._. X=Xd.1.1.1.1.1.1.1.1.1.g.d.1.1.1.1.7.7.1.M.j.H.Z.cX2.0.0.G.g - O             ",
". * dX!.D.J.1.1.1.1.1.1.1.d.5X[.w y.4.4.4.4.4.4.4.'.D.J.1.1.1.1.1.1.1.1.1.1.1.1.1.1.1.1.1.1.7.7.7.f.K.&X}.cX0.T.8 # O           ",
". * U.B.[.E.1.1.1.1.1.1.1.E.D.a '.4.4.4.4.4.4.4.4.4.B.DXw.1.1.1.1.1.1.1.1.1.1.1.1.1.1.1.1.1.1.1.1.1.7.7.f.K.H.Z.z.].$ +         ",
"  0 7X;X^.dX1.1.1.1.1.1.k.3XV.`.4.4.4.4.<X%Xa 4.4.4.'.tXg.1.1.1.1.1.1.1.1.1.1.1.1.1.1.1.1.1.1.1.1.1.1.1.1.7.7.f.j.:X.X# O       ",
"  : wX-Xa U.d.1.1.1.1.1.9 oX-X_.4.4.4.y.vXD.D.<X4.4._.(.J.1.1.1.1.1.1.1.1.1.1.1.1.1.1.1.1.1.1.1.1.1.1.1.1.1.1.1.7.f.j.@X5       ",
"  @ Z F.-X3Xb.1.1.1.1.g.tXB.'.4.4.4.4.F.9XF.x !.4.4.4. XY.1.1.1.1.1.1.1.1.1.1.1.1.1.1.1.1.1.1.1.1.1.1.1.1.1.1.1.1.1.7.d.o.6     ",
"  + 2 V.'.gXm.1.1.1.1.+X[.<X).4.4.4.4.V.wX;X%XoX4.4.4.V.E.1.1.1.1.1.1.1.1.1.1.1.1.1.1.1.1.1.1.1.1.1.1.1.1.1.1.1.1.1.1.1.u.y %   ",
"  X # %X_.D.; u.1.1.d.U.!.'.4.4.4.4.4.!.#XF.J [.4.4.4.B.9 1.1.1.1.1.1.1.1.1.1.1.1.1.1.1.1.1.1.1.1.1.1.1.1.1.1.1.1.1.1.1.1.k.# . ",
"    : oX4.x iXc.7.v.a.GX;X_.4.4.4.4.4.^.p.(.sX(.4.4.4.V.9 1.1.1.1.1.1.1.1.1.1.1.1.1.1.1.1.1.w.d.u.e.e.g.l.l.l.l.e.e.u.d.v.1.W & ",
"    @ $._.%Xp.x.c.a.S.oX`.4.4.4.4.4.4.^.p.p.p.(.4.4.4. XE.1.1.1.1.1.1.1.1.1.1.1.w.d.e.l.b.c.a.C.r.r.3.3.3.3.3.3.5.r.r.C.a.b.2Xu ",
"    + %.`.B.L.hXs.s.7XV.y.4.4.4.4.4.4.^.L.p.p.[.4.4.).(.J.1.1.1.1.1.1.1.w.e.l.c.a.r.5.3.8.8.8.8.3.3.3.3.5.5.5.8.s.m.A.S.B p p 2 ",
". + . +.F.<XwXp.h.A.gX;X4.4.4.4.4.4.4.B.#XL.p.oX4.4.`.tXg.1.1.1.1.v.e.c.C.r.8.8.8.8.3.3.3.3.3.3.5.5.8.t.h.x.B p d * # > & = t + ",
"$ #.^ 7 XXy.gXp.iX#X%Xy.4.4.4.4.4.4.4.-X9X#XL.%X4.4.V.=Xb.w.w.d.l.a.r.8.8.3.3.3.3.3.3.3.3.5.3.t.x.i.p d * - : @ o .             ",
"9Xw -X[.9X^.XXwX[.!.`.4.4.4.4.4.4.4.4._.sXL.#Xa 4.y.D.h.r.a.a.C.3.8.3.3.3.3.3.3.3.3.5.3.t.x.B d $ : @ + .                       ",
"4 GX!.F.! p.D.x J F.'.4.4.4.4.4.4.4.4.4.;XD.x y.4.^.5X8.3.8.8.8.3.3.3.3.3.3.3.3.5.s.A.B d 0 & o X                               ",
", Z #XwXL.p.p.L.{.{.(.!._.4.4.4.4.4.4.4.4.y._.4.B.7Xt.3.3.3.3.3.3.3.3.3.3.3.3.s.x.; iXZ =                                       ",
"X = # 4 L.p.p.L.OXq.Q.{. Xy.4.4.4.4.4.4.4.4.4.-XtXA.5.3.3.3.3.3.3.3.3.3.3.s.A.S.x.m.C.dX$ O                                     ",
"    X % 7 Y $XpX|.9.9.nXOX Xy.4.4.4.4.4.4.4.F.gXhXx.s.3.3.3.3.3.3.3.3.3.8.h.h.s.3.c.v.w.9 ,                                     ",
"        = O.NXqXP.9.9.9.9.OXXX<X_._.y.`.B.XX{.{.~.*X=Xt.3.3.3.3.3.3.3.3.3.8.3.3.r.u.1.1.e.y %                                   ",
"        X - $XMX6X9.9.9.9.9.fXBXXXoXHXHX~.fXP.q.q.9.{.i.3.3.3.3.8.3.3.3.3.3.3.8.a.v.1.1.1.Y.-                                   ",
"          o l pXqXaX9.9.9.9.9.nX6XQ.6XaX9.9.nX0X*X0XQ.7Xt.3.5.m.m.3.3.3.3.3.3.8.c.1.1.1.1.d.y %                                 ",
"            @ l pX4XP.9.9.9.9.9.9.9.q.q.q.9.|.~.Y BX|.9Xt.8.A.S.s.3.3.3.3.3.3.8.a.v.1.1.1.1.Y.>                                 ",
"              @ l bX4XP.9.9.9.9.9.P.fX8XOXBX~.OXQ.6X0X=Xh.S.x.s.3.3.3.3.3.3.3.3.r.e.1.1.1.1.e.* O                               ",
"                e m *XKX|.nX9.9.9.P.Q.8X8XfX|.q.q.Q.! hXi.h.3.3.3.3.3.3.3.3.3.3.8.a.d.1.1.1.1.X.M                               ",
"                  O A l *XmX4XaX9.9.q.q.q.q.P.Q.~.! Z i S.h.t.3.5.3.3.3.3.3.3.3.3.3.b.1.1.1.1.J.-                               ",
"                      o > m Y *XbXmX0XOX~.$XO.l 0 = t 6 > $ d B x.t.3.5.3.3.3.3.3.3.r.g.1.1.1.g.* O                             ",
"                          O @ , - 0 # # - : @ +           X o & # 4 i.h.3.5.3.3.3.3.8.C.u.1.1.v.y %                             ",
"                                                                X t 5 2 ; A.8.5.3.3.3.8.c.w.1.1.X.6                             ",
"                                                                      o > 2 ; h.3.3.3.3.3.l.1.1.Y.A                             ",
"                                                                          o 5 4 i.t.5.3.8.C.d.1.k.$ X                           ",
"                                                                              e $ i x.8.3.8.b.1.e.u O                           ",
"                                                                                . & u ; t.3.r.e.w.y o                           ",
"                                                                                    + 5 4 h.3.c.v.o.t                           ",
"1 < 1 1 3 X ~ < ~ X         3 1 V   P 3 ~ < < 1 3 3 < < 1 3         V :.k K E .         @ * S.3.e.W @                           ",
"F ( F.D N L _ ' [ ) V @.@.. < w N   k ] s J b [ U < w I ] =.` 1 1 1 ` F J !.#.C C C 3 P 1 } +.p a.W =                           ",
"  K a I % 3 &.s C N / I c L < w F   k S s { ) =.D v w c   k v ,._ D H O S x } s I c n -.{ Q v A y 9 6                           ",
"  K V.| + ` L B.s P >.S . n v w  .% k G s B.D a b < ;X .% k b 3 _ q ..L @ E v ;.D &.q U  .+ / N = # %                           ",
"  K V.6   ) U ( V.] / S C q *.( ^.n ' | s V.G -.U < w ^.n ' T P ;.N 3 n E v $.<.G n [ k { ..S T   X                             ",
"  E q =   O c G R *.V c R T X H b q ^ % F q Q ..b } G q q Q O V b H   H | %.T F Q H R c q R ^ o                                 "
};
